Coordinates
version=1
nRows=7
nColumns=42
inDegrees=yes

Units are S.I. units (second, meters, Newtons, ...)
If the header above contains a line with 'inDegrees', this indicates whether rotational values are in degrees (yes) or radians (no).

endheader
time	pelvis_tilt	pelvis_list	pelvis_rotation	pelvis_tx	pelvis_ty	pelvis_tz	hip_flexion_r	hip_adduction_r	hip_rotation_r	knee_angle_r	knee_adduction_r	knee_angle_r_beta	ankle_angle_r	subtalar_angle_r	mtp_angle_r	hip_flexion_l	hip_adduction_l	hip_rotation_l	knee_angle_l	knee_adduction_l	knee_angle_l_beta	ankle_angle_l	subtalar_angle_l	mtp_angle_l	lumbar_extension	lumbar_bending	lumbar_rotation	arm_flex_r	arm_add_r	arm_rot_r	elbow_flex_r	pro_sup_r	wrist_flex_r	wrist_dev_r	arm_flex_l	arm_add_l	arm_rot_l	elbow_flex_l	pro_sup_l	wrist_flex_l	wrist_dev_l
      1.26000000	      1.80742053	     -0.70388233	     -9.13394491	     -0.88183386	      0.90296244	     -0.10289382	    -16.31722715	      0.47649200	     -1.70212573	     11.04644019	      3.86058144	      0.19279675	     18.95909551	      4.70153453	     -7.52976163	     23.00991293	     -5.05569510	    -10.23281194	      5.89484443	      4.51953640	      0.10288444	     -9.31461258	    -15.90150611	     -7.52976163	    -15.89902222	     -0.67702873	      4.18049337	      4.60195250	    -22.70401270	      6.38705441	     54.14922860	     90.00000001	      0.00000000	      0.00000000	    -16.77529097	     -4.26170103	    -16.78206172	     22.74815750	     90.00000001	      0.00000000	      0.00000000
      1.27000000	      1.66383328	     -0.66241636	     -9.16525661	     -0.87007985	      0.90160752	     -0.10337016	    -16.77013336	      0.14605298	     -1.29796717	     11.42535892	      4.06382783	      0.19941013	     18.49696907	      4.15626243	     -7.52868814	     23.22687729	     -4.71394571	     -8.52876579	      6.80986007	      4.58960322	      0.11885448	    -10.29488005	    -16.91145049	     -7.52868814	    -15.77550977	     -0.71854939	      4.38019526	      4.32145630	    -22.58333317	      6.30066229	     53.36440719	     90.00000001	      0.00000000	      0.00000000	    -16.27983171	     -4.27279997	    -17.00031442	     22.49721830	     90.00000001	      0.00000000	      0.00000000
      1.28000000	      1.53429841	     -0.57244475	     -9.19168052	     -0.85813334	      0.90059758	     -0.10385554	    -17.22771776	     -0.23303026	     -0.64630542	     11.80555858	      4.32223543	      0.20604587	     17.85129202	      3.13172557	     -7.52701308	     23.41454926	     -4.36440677	     -6.81359750	      7.83498259	      4.71320148	      0.13674624	    -11.27473517	    -17.58794419	     -7.52701308	    -15.64220515	     -0.83216539	      4.56823283	      3.99561217	    -22.37024234	      6.19977821	     52.41562438	     90.00000001	      0.00000000	      0.00000000	    -15.72875658	     -4.27968550	    -17.44558415	     22.23045651	     90.00000001	      0.00000000	      0.00000000
      1.29000000	      1.37814049	     -0.44978812	     -9.20832403	     -0.84602851	      0.89990086	     -0.10435563	    -17.53186570	     -0.65099561	     -0.27431562	     12.39842075	      4.55576690	      0.21639326	     16.96159431	      2.54155282	     -7.52623592	     23.67161638	     -4.06153696	     -5.30588752	      9.04445259	      4.90597965	      0.15785548	    -12.24596456	    -17.99550143	     -7.52623592	    -15.47397003	     -0.98157650	      4.72735568	      3.60018662	    -22.17414585	      6.21071430	     51.49132164	     90.00000001	      0.00000000	      0.00000000	    -15.23188372	     -4.32203998	    -17.55480330	     22.13222194	     90.00000001	      0.00000000	      0.00000000
      1.30000000	      1.29819860	     -0.27585330	     -9.22105979	     -0.83369090	      0.89962752	     -0.10486004	    -17.85459580	     -1.15929280	      0.04155560	     13.07226143	      4.85622699	      0.22815400	     16.23185362	      2.22156560	     -7.52588602	     23.85192588	     -3.74578637	     -4.02790828	     10.34906443	      5.10926702	      0.18062525	    -12.83480894	    -18.05521576	     -7.52588602	    -15.37623569	     -1.21006677	      4.93449410	      3.00875932	    -22.03896697	      6.27101710	     50.74068513	     90.00000001	      0.00000000	      0.00000000	    -14.76179087	     -4.41159251	    -17.57938236	     22.26407915	     90.00000001	      0.00000000	      0.00000000
      1.31000000	      1.10215190	     -0.14886423	     -9.24735702	     -0.82136278	      0.89984579	     -0.10519733	    -18.10107535	     -1.49266901	      1.81558000	     13.58858740	      5.30166401	      0.23716559	     13.88356436	     -1.72905379	     -7.52335516	     24.02424097	     -3.60579886	     -2.62213410	     11.46794534	      5.47544795	      0.20015340	    -13.81102272	    -18.54256399	     -7.52335516	    -15.13799704	     -1.40782071	      5.01259399	      2.96576821	    -21.35720786	      5.94692466	     48.73530587	     90.00000001	      0.00000000	      0.00000000	    -13.99665095	     -4.38045563	    -18.40656008	     21.68293818	     90.00000001	      0.00000000	      0.00000000
      1.32000000	      1.02201311	      0.02868155	     -9.24940126	     -0.80876789	      0.90039027	     -0.10566009	    -18.13040421	     -1.98498001	      2.02693431	     14.71847596	      5.63267037	      0.25688587	     12.58189538	     -2.02338913	     -7.52301832	     24.08984147	     -3.43752628	     -1.71180447	     12.71514556	      5.83665994	      0.22192115	    -14.10619292	    -18.72852296	     -7.52301832	    -15.02020137	     -1.64457606	      5.17464208	      2.31123258	    -21.16337378	      6.05697563	     47.90792978	     90.00000001	      0.00000000	      0.00000000	    -13.48671705	     -4.41314459	    -18.39142353	     21.84844167	     90.00000001	      0.00000000	      0.00000000
